<svg width="100" height="100" viewBox="0 0 100 100" fill="none" xmlns="http://www.w3.org/2000/svg">
<path d="M90.5416 75L57.2083 16.6667C56.4815 15.3842 55.4275 14.3175 54.1538 13.5753C52.8801 12.8332 51.4324 12.4421 49.9583 12.4421C48.4842 12.4421 47.0364 12.8332 45.7628 13.5753C44.4891 14.3175 43.4351 15.3842 42.7083 16.6667L9.37495 75C8.64029 76.2724 8.25507 77.7163 8.25832 79.1855C8.26157 80.6547 8.65319 82.0969 9.39348 83.366C10.1338 84.635 11.1964 85.6858 12.4737 86.4118C13.751 87.1378 15.1975 87.5133 16.6666 87.5H83.3333C84.7954 87.4985 86.2313 87.1124 87.4969 86.3804C88.7626 85.6484 89.8134 84.5963 90.5437 83.3297C91.2741 82.0631 91.6584 80.6266 91.6581 79.1646C91.6577 77.7025 91.2727 76.2662 90.5416 75Z" fill="#8E36E6" stroke="#8E36E6" stroke-width="10" stroke-linecap="round" stroke-linejoin="round"/>
<path d="M50 37.5V54.1667" stroke="#F7F9FC" stroke-width="10" stroke-linecap="round" stroke-linejoin="round"/>
<path d="M50 70.8334H50.0417" stroke="#F7F9FC" stroke-width="10" stroke-linecap="round" stroke-linejoin="round"/>
<g clip-path="url(#clip0_74_422)">
<path d="M19.6675 25.8657L19.6759 25.8639" stroke="#8E36E6" stroke-width="2" stroke-linecap="round" stroke-linejoin="round"/>
<path d="M18.2124 19.1431L18.9399 22.5044" stroke="#8E36E6" stroke-width="2" stroke-linecap="round" stroke-linejoin="round"/>
<path d="M19.9043 13.4987C20.35 13.4024 20.8157 13.487 21.1991 13.734L25.9912 16.8208C26.3746 17.0677 26.6442 17.4568 26.7408 17.9024L27.9456 23.4688C28.042 23.9145 27.9573 24.3803 27.7103 24.7636L24.6235 29.5557C24.3766 29.9391 23.9875 30.2088 23.5419 30.3053L17.9755 31.5101C17.5298 31.6065 17.064 31.5219 16.6807 31.2749L11.8886 28.188C11.5052 27.9412 11.2355 27.5521 11.139 27.1064L9.93419 21.5401C9.83782 21.0943 9.92244 20.6286 10.1694 20.2452L13.2563 15.4531C13.5031 15.0697 13.8922 14.8001 14.3379 14.7035L19.9043 13.4987Z" stroke="#8E36E6" stroke-width="2" stroke-linecap="round" stroke-linejoin="round"/>
</g>
<g clip-path="url(#clip1_74_422)">
<path d="M81.3003 35.5967L81.3057 35.5971" stroke="#8E36E6" stroke-opacity="0.5" stroke-width="2" stroke-linecap="round" stroke-linejoin="round"/>
<path d="M81.6055 31.2633L81.453 33.43" stroke="#8E36E6" stroke-opacity="0.5" stroke-width="2" stroke-linecap="round" stroke-linejoin="round"/>
<path d="M83.6282 28.1395C83.9155 28.1598 84.1829 28.2934 84.3717 28.5108L86.7324 31.2288C86.9213 31.4462 87.0161 31.7298 86.9959 32.0171L86.7435 35.6051C86.7232 35.8924 86.5897 36.1599 86.3722 36.3487L83.6542 38.7094C83.4368 38.8982 83.1532 38.993 82.8659 38.9729L79.2779 38.7204C78.9907 38.7002 78.7232 38.5666 78.5344 38.3491L76.1737 35.6311C75.9848 35.4137 75.89 35.1302 75.9102 34.8429L76.1626 31.2549C76.1829 30.9676 76.3164 30.7001 76.5339 30.5113L79.2519 28.1506C79.4693 27.9617 79.7529 27.8669 80.0402 27.8871L83.6282 28.1395Z" stroke="#8E36E6" stroke-opacity="0.5" stroke-width="2" stroke-linecap="round" stroke-linejoin="round"/>
</g>
<defs>
<clipPath id="clip0_74_422">
<rect width="20.6349" height="20.6349" fill="white" transform="translate(6.67334 14.603) rotate(-12.2127)"/>
</clipPath>
<clipPath id="clip1_74_422">
<rect width="13.0322" height="13.0322" fill="white" transform="translate(75.4102 26.4727) rotate(4.02458)"/>
</clipPath>
</defs>
</svg>
