<svg width="232" height="108" viewBox="0 0 232 108" fill="none" xmlns="http://www.w3.org/2000/svg">
<g clip-path="url(#clip0_320_12694)">
<path d="M189.13 57.8595L186.374 49.1543L183.438 57.8595H189.13ZM185.174 56.6212L186.337 53.1531L187.41 56.6212H185.174Z" fill="white" fill-opacity="0.35"/>
<path d="M184.798 42.207H183.474L174.946 65.6583L174.914 65.7441H176.233L184.761 42.2982L184.798 42.207Z" fill="white" fill-opacity="0.35"/>
<path d="M182.266 61.3008L180.829 65.6587L180.797 65.7445H182.11L183.166 62.539H189.283L190.274 65.7445H191.545L190.167 61.3008H182.266Z" fill="white" fill-opacity="0.35"/>
<path d="M188.982 42.4L188.913 42.207H187.594L196.085 65.5511L196.154 65.7441H197.398L188.982 42.4Z" fill="white" fill-opacity="0.35"/>
<path d="M173.892 42.207H172.648V65.7441H173.892V42.207Z" fill="white" fill-opacity="0.35"/>
<path d="M160.438 51.75V65.7458H161.68V55.99L167.814 65.6118L167.904 65.7458H169.356L160.56 51.943L160.438 51.75Z" fill="white" fill-opacity="0.35"/>
<path d="M168.284 42.3035V42.2338H167.042V51.818L160.926 42.2392L160.903 42.207H159.43L168.295 56.1009L168.284 42.3035Z" fill="white" fill-opacity="0.35"/>
<path d="M156.071 42.207H154.828V65.7441H156.071V42.207Z" fill="white" fill-opacity="0.35"/>
<path d="M109.893 42.207H91.7969V43.4506H109.893V42.207Z" fill="white" fill-opacity="0.35"/>
<path d="M91.7969 48.4433H97.4092V65.7463H98.6474V47.2051H91.7969V48.4433Z" fill="white" fill-opacity="0.35"/>
<path d="M103.039 65.7463H104.283V48.4433H109.89V47.2051H103.039V65.7463Z" fill="white" fill-opacity="0.35"/>
<path d="M63.8697 42.2344H54.4141V65.8197H55.6577V43.4619H63.8697C67.3538 43.4619 70.8809 45.7186 70.8809 50.0336C70.8809 54.3487 67.3538 56.6054 63.8697 56.6054H59.8869V65.809H61.1305V57.8329H63.8804C69.2889 57.8329 72.1192 53.9091 72.1192 50.0336C72.1192 46.1581 69.2942 42.2344 63.8697 42.2344Z" fill="white" fill-opacity="0.35"/>
<path d="M66.4695 49.8423C66.468 49.065 66.1587 48.3201 65.6091 47.7705C65.0595 47.2209 64.3145 46.9116 63.5373 46.9102H59.7422V52.7529H63.5373C64.3108 52.7515 65.0527 52.4451 65.6015 51.9002C66.1505 51.3552 66.4623 50.6157 66.4695 49.8423ZM60.9859 51.5307V48.1484H63.5373C63.9695 48.1727 64.3757 48.3615 64.6731 48.676C64.9703 48.9905 65.1359 49.4068 65.1359 49.8396C65.1359 50.2723 64.9703 50.6887 64.6731 51.0031C64.3757 51.3176 63.9695 51.5064 63.5373 51.5307H60.9859Z" fill="white" fill-opacity="0.35"/>
<path d="M42.602 56.7569L45.2821 57.1321C46.0256 57.1555 46.6953 57.6009 46.6222 58.4079C46.5423 59.2896 45.7699 59.7747 44.0814 59.7747C43.1487 59.7747 40.8384 59.6461 39.6163 58.4187L38.7479 59.2708C40.297 60.8253 42.9986 60.9915 44.1082 60.9915C45.4804 60.9915 46.4935 60.7128 47.1207 60.1607C47.6085 59.7312 47.8395 59.1216 47.8711 58.4239C47.9005 57.7751 47.7235 57.0931 47.244 56.6551C46.7267 56.1824 46.0969 56.0564 45.4483 55.9367L42.7681 55.5615C41.2669 55.4319 39.8511 54.8079 38.7426 53.7873C38.267 53.2419 37.9042 52.6077 37.6751 51.9214C37.4461 51.2351 37.3552 50.5102 37.4078 49.7885C37.4078 45.9934 40.3721 43.4473 44.8158 43.4473C47.9515 43.4473 50.1064 44.1977 51.7842 45.8916L52.6418 45.0285C50.6799 43.1042 48.2464 42.2305 44.7783 42.2305C42.2321 42.2305 40.088 42.9488 38.5335 44.3049C37.7567 44.984 37.1392 45.8261 36.725 46.7711C36.3109 47.7162 36.1102 48.741 36.1374 49.7724C36.0835 50.6546 36.2054 51.5387 36.4962 52.3735C36.787 53.208 37.2408 53.9765 37.8313 54.6343C39.1445 55.8476 40.8214 56.5939 42.602 56.7569Z" fill="white" fill-opacity="0.35"/>
<path d="M46.6455 51.0304L43.9654 50.6659C43.3823 50.6189 42.5981 50.2712 42.5824 49.5938C42.5824 48.8862 43.2203 48.168 44.6355 48.168C45.9805 48.168 47.3601 48.2864 48.3715 49.2883L49.2024 48.4253C47.9469 47.1698 46.2955 46.9512 44.6087 46.9512C42.3627 46.9512 41.3388 48.3234 41.3388 49.5992C41.3536 50.9252 42.6144 51.7832 43.8421 51.8719L46.5223 52.2471C47.9879 52.3623 49.3788 52.9405 50.4943 53.8981C51.4699 54.8469 51.9415 56.2781 51.9415 58.2668C51.9415 61.4079 49.5027 64.5758 44.0619 64.5758H43.9761C40.3847 64.5758 38.0476 63.7664 36.1554 61.8957L35.2656 62.7212C37.3669 64.8653 39.9934 65.8087 44.0404 65.8087C49.4865 65.8087 53.1529 62.7962 53.1529 58.3043C53.1529 55.9458 52.5527 54.2251 51.3197 53.0351C50.0161 51.8843 48.3779 51.1817 46.6455 51.0304Z" fill="white" fill-opacity="0.35"/>
<path d="M112.314 42.207H111.07V65.7441H112.314V42.207Z" fill="white" fill-opacity="0.35"/>
<path d="M124.537 42.2338H123.299V51.818L117.247 42.341L117.161 42.207H115.688L124.537 56.1009V42.2338Z" fill="white" fill-opacity="0.35"/>
<path d="M116.695 51.75V65.7458H117.934V55.99L124.136 65.719L124.157 65.7458H125.604L116.819 51.943L116.695 51.75Z" fill="white" fill-opacity="0.35"/>
<path d="M130.149 42.207H128.906V65.7441H130.149V42.207Z" fill="white" fill-opacity="0.35"/>
<path d="M145.201 42.207H143.883L152.373 65.5511L152.449 65.7441H153.762L145.271 42.4L145.201 42.207Z" fill="white" fill-opacity="0.35"/>
<path d="M141.088 42.207H139.764L131.236 65.6583L131.203 65.7441H132.522L141.051 42.2982L141.088 42.207Z" fill="white" fill-opacity="0.35"/>
<path d="M145.399 57.8926L142.649 49.1875L139.711 57.8926H145.399ZM141.443 56.6544L142.606 53.1917L143.678 56.6544H141.443Z" fill="white" fill-opacity="0.35"/>
<path d="M138.582 61.3008L137.102 65.6587L137.07 65.7445H138.422L139.471 62.539H145.587L146.584 65.7445H147.887L146.499 61.3008H138.582Z" fill="white" fill-opacity="0.35"/>
<path d="M78.3731 42.6672C77.2248 43.135 76.1899 43.843 75.3378 44.7436C72.8828 47.1772 72.8828 50.3076 72.8828 53.6203V54.3975C72.8828 57.6995 72.8828 60.8299 75.3163 63.2474C76.135 64.1037 77.1182 64.7858 78.2069 65.2528C80.4652 66.2214 83.3351 66.2486 85.6162 65.3325C86.7657 64.8708 87.8056 64.1733 88.6689 63.2849C91.1079 60.7924 91.1078 57.6834 91.1078 54.36V53.5988C91.1078 50.2969 91.1079 47.1665 88.6796 44.749C87.8639 43.8904 86.882 43.2066 85.7937 42.7394C83.5612 41.7811 80.6207 41.7515 78.3731 42.6672ZM76.2062 45.6066C76.9143 44.8764 77.7615 44.2954 78.6978 43.8977C80.6288 43.0774 83.1858 43.0469 85.1318 43.8246C86.126 44.2219 87.0247 44.8256 87.7683 45.5959C89.8428 47.6811 89.8428 50.5595 89.8428 53.6364V54.3868C89.8428 57.4368 89.8428 60.3153 87.763 62.4273C87.0176 63.194 86.1183 63.7939 85.124 64.1875C83.1952 64.9511 80.7755 64.9496 78.8486 64.1813C77.8493 63.7829 76.9466 63.1757 76.2008 62.4005C74.1264 60.3153 74.1264 57.4315 74.1264 54.36V53.6096C74.121 50.5756 74.1156 47.6972 76.2062 45.6066Z" fill="white" fill-opacity="0.35"/>
<path fill-rule="evenodd" clip-rule="evenodd" d="M79.2995 53.5239V53.5284V54.2835C79.2995 55.9312 79.3164 56.9102 79.468 57.7086C79.543 58.1036 79.6796 58.4259 79.8899 58.6865C80.1 58.9471 80.3862 59.149 80.7648 59.3C81.0842 59.4273 81.5364 59.4923 81.9922 59.4925C82.448 59.4927 82.9004 59.4282 83.2204 59.3016C83.6019 59.1505 83.8836 58.9517 84.0888 58.6936C84.2943 58.4352 84.4258 58.1141 84.502 57.7144C84.6537 56.9178 84.6706 55.9458 84.6706 54.3103V53.5599C84.6706 51.9091 84.6537 50.9306 84.5022 50.1332C84.4272 49.7388 84.2919 49.4189 84.0833 49.1605C83.8747 48.9022 83.5904 48.7023 83.2127 48.5514C82.8738 48.4159 82.4183 48.3519 81.9616 48.3581C81.505 48.3644 81.0529 48.441 80.7206 48.5821C80.3552 48.7373 80.078 48.9365 79.8737 49.1913C79.6693 49.4462 79.5357 49.7596 79.4619 50.1465C79.3121 50.9325 79.2966 51.8951 79.2995 53.5239ZM78.0238 54.2835C78.0238 55.8985 78.0362 57.0068 78.2147 57.9466C78.4446 59.1575 79.1424 60.0265 80.2923 60.4849C80.8166 60.694 81.4461 60.7679 81.9916 60.7682C82.5373 60.7685 83.1661 60.6951 83.69 60.4877C84.8481 60.0292 85.5228 59.1728 85.7551 57.9531C85.9338 57.0149 85.9463 55.9135 85.9463 54.3103V53.5599C85.9463 51.9419 85.9338 50.834 85.7554 49.8951C85.5257 48.6858 84.8332 47.8252 83.6861 47.3668C83.1416 47.1491 82.5057 47.0748 81.9441 47.0826C81.3821 47.0903 80.7534 47.1821 80.2218 47.408C79.1127 47.8791 78.4348 48.722 78.2088 49.9076C78.0317 50.8368 78.021 51.9302 78.0238 53.5262V53.5286V54.2835Z" fill="white" fill-opacity="0.35"/>
</g>
<defs>
<clipPath id="clip0_320_12694">
<rect width="162.133" height="24" fill="white" transform="translate(35.2656 42)"/>
</clipPath>
</defs>
</svg>
