<svg width="232" height="108" viewBox="0 0 232 108" fill="none" xmlns="http://www.w3.org/2000/svg">
<mask id="mask0_320_12690" style="mask-type:luminance" maskUnits="userSpaceOnUse" x="56" y="36" width="121" height="36">
<path d="M176.923 36H56V72H176.923V36Z" fill="white"/>
</mask>
<g mask="url(#mask0_320_12690)">
<path d="M130.872 46.816L127.866 49.0727L127.753 48.9052C126.349 46.8487 124.057 45.5552 121.301 45.5552C116.581 45.5552 113.114 48.9901 113.114 53.9989C113.114 59.0077 116.579 62.4425 121.301 62.4425C124.041 62.4425 126.302 61.199 127.738 59.1077L127.866 58.925L130.885 61.1904L130.775 61.3469C128.811 64.2492 125.346 66.0426 121.301 66.0426C114.204 66.0426 109.203 60.9338 109.203 53.9989C109.203 47.0639 114.204 41.9551 121.301 41.9551C125.411 41.9551 129.058 43.7964 130.872 46.816Z" fill="white" fill-opacity="0.35"/>
<path d="M135.957 65.61H132.492V41.7246H135.957V65.61Z" fill="white" fill-opacity="0.35"/>
<path d="M156.191 65.6109H152.741V63.7043C151.651 65.1131 150.018 66.0262 147.773 66.0262C143.35 66.0262 139.867 62.5261 139.867 57.6673C139.867 52.8064 143.35 49.3086 147.773 49.3086C150.018 49.3086 151.651 50.2368 152.741 51.6478V49.7238H156.191V65.6109ZM143.417 57.6652C143.417 60.4522 145.216 62.7565 148.186 62.7565C151.042 62.7565 152.955 60.5674 152.955 57.6652C152.955 54.763 151.042 52.5739 148.186 52.5739C145.216 52.5739 143.417 54.8782 143.417 57.6652Z" fill="white" fill-opacity="0.35"/>
<path d="M170.765 49.7525L169.939 53.1851C169.212 52.8025 168.156 52.6047 167.315 52.6047C165.12 52.6047 163.552 54.1634 163.552 56.8677V65.6091H160.102V49.7199H163.517V51.5112C164.557 50.0024 166.174 49.3047 168.105 49.3047C169.164 49.3047 169.971 49.4372 170.765 49.7525Z" fill="white" fill-opacity="0.35"/>
<path d="M176.922 44.2278C176.922 45.604 175.849 46.6496 174.48 46.6496C173.111 46.6496 172.07 45.604 172.07 44.2278C172.07 42.8517 173.111 41.7734 174.48 41.7734C175.849 41.7734 176.922 42.8517 176.922 44.2278ZM176.228 65.6088H172.763V49.7193H176.228V65.6088Z" fill="white" fill-opacity="0.35"/>
<path d="M97.1195 42.832L84.2344 46.3321C84.7556 48.7495 85.0303 51.3126 85.0303 54.0018C85.0303 56.691 84.7535 59.252 84.2344 61.6716L97.1195 65.1717C97.9436 61.6803 98.3762 57.8541 98.3762 54.004C98.3762 50.154 97.9436 46.3234 97.1195 42.832Z" fill="white" fill-opacity="0.35"/>
<path d="M64.494 39.2148L56 53.9996L69.4429 43.9127C68.1537 41.9801 66.4753 40.3888 64.494 39.2148Z" fill="white" fill-opacity="0.35"/>
<path d="M64.494 68.785L56 53.998L69.4429 64.085C68.1537 66.0198 66.4753 67.6111 64.494 68.785Z" fill="white" fill-opacity="0.35"/>
<path d="M79.9903 36L56 54.0006L84.2363 46.3308C83.41 42.4937 81.9629 39.0197 79.9903 36Z" fill="white" fill-opacity="0.35"/>
<path d="M79.9903 71.9986L56 53.998L84.2363 61.6679C83.41 65.5072 81.9629 68.9812 79.9903 71.9986Z" fill="white" fill-opacity="0.35"/>
</g>
</svg>
