<svg width="232" height="108" viewBox="0 0 232 108" fill="none" xmlns="http://www.w3.org/2000/svg">
<path d="M129.11 53.5333C129.11 49.1 131.319 46.2533 134.702 46.2533C138.085 46.2533 140.294 49.1 140.294 53.5333C140.294 57.9667 138.085 60.86 134.702 60.86C131.319 60.86 129.11 57.9201 129.11 53.5333ZM120.464 41.4467C115.859 41.4467 113.087 44.8534 113.087 50.9201V65.6667H120.511V41.4467H120.464ZM111.113 41.4467C103.595 41.4467 99.4126 43.5467 90.7195 52.3667L84 59.18V65.6667H111.63V58.3867H95.1366L111.63 41.4467H111.113ZM121.968 75H129.392V60.8134C130.567 64.3601 133.715 66.3667 137.568 66.3667C143.63 66.3667 148 61.14 148 53.5333C148 45.9267 143.63 40.7 137.568 40.7C133.715 40.7 130.567 42.7533 129.392 46.2533V41.4467H121.968V75ZM120.511 33H113.087V40.28H120.511V33ZM111.63 33H84.5639V40.28H111.63V33Z" fill="white" fill-opacity="0.45"/>
</svg>
