<svg width="232" height="108" viewBox="0 0 232 108" fill="none" xmlns="http://www.w3.org/2000/svg">
<g clip-path="url(#clip0_404_4)">
<path d="M98.8596 54.87L96.8676 54.687C95.5616 54.573 95.0356 54.115 95.0356 53.313C95.0356 52.374 95.8366 51.756 97.3936 51.756C98.8596 51.756 99.5926 52.396 99.7066 53.427H104.379C104.081 50.382 101.929 48.229 97.5316 48.229C92.9516 48.229 90.4316 50.565 90.4316 53.656C90.4316 56.542 92.0116 58.122 95.9286 58.443L97.8986 58.603C99.4316 58.718 99.9816 59.244 99.9816 60.16C99.9816 61.122 99.1806 61.832 97.5316 61.832C95.9966 61.832 95.0816 61.145 94.9216 59.932H89.9966C90.4316 63.252 92.7676 65.45 97.5086 65.45C102.112 65.45 104.654 63.092 104.654 59.908C104.654 56.817 102.959 55.237 98.8596 54.87ZM82.7376 48.229C79.8066 48.229 78.0656 49.763 77.2416 52.901H76.9436V48.504H72.3176V65.176H77.2416V55.466C77.2416 53.244 78.3866 52.031 80.4476 52.031C82.4856 52.031 83.4936 53.291 83.4936 55.443V65.176H88.4166V54.573C88.4166 50.542 86.3106 48.229 82.7376 48.229ZM67.5316 42C65.8596 42 64.5996 43.1 64.5996 44.771C64.5996 46.443 65.8366 47.542 67.5086 47.542C69.1806 47.542 70.4166 46.442 70.4166 44.771C70.4166 43.122 69.1806 42 67.5316 42ZM69.9816 48.504H65.0576V65.176H69.9816V48.504ZM112.394 44.977H109.257C109.165 47.657 108.02 48.824 105.455 49.03V52.42H107.471V59.748C107.471 63.435 109.577 65.45 113.768 65.45C114.556 65.45 115.341 65.35 116.104 65.153V61.19C115.71 61.2553 115.312 61.2857 114.914 61.281C113.15 61.281 112.394 60.617 112.394 58.762V52.42H116.723V48.504H112.394V44.977ZM190.486 52.42V48.504H186.158V44.977H183.066C182.997 46.832 182.448 47.908 181.234 48.504V59.748C181.234 63.435 183.341 65.45 187.532 65.45C188.32 65.45 189.105 65.35 189.868 65.153V61.19C189.474 61.2553 189.076 61.2858 188.677 61.281C186.913 61.281 186.158 60.617 186.158 58.762V52.42H190.486ZM174.364 53.153H174.066V48.503H169.509V65.176H174.433V56.153C174.433 53.656 175.555 52.603 178.12 52.603C178.555 52.603 179.036 52.649 179.7 52.763V48.458C179.251 48.3005 178.778 48.223 178.303 48.229C176.31 48.229 174.936 49.374 174.364 53.153ZM142.921 61.237C140.608 61.237 138.936 59.702 138.936 56.725C138.936 54.069 140.493 52.42 142.875 52.42C144.913 52.42 146.081 53.565 146.425 55.397H151.417C150.936 51.114 147.868 48.229 142.944 48.229C137.539 48.229 133.99 51.893 133.99 56.909C133.99 62.107 137.402 65.45 142.875 65.45C147.845 65.45 151.074 62.68 151.532 58.19H146.539C146.265 60.023 145.005 61.237 142.921 61.237ZM125.265 48.229C120.982 48.229 118.395 50.336 117.936 54.114H122.654C122.814 52.809 123.662 52.122 125.15 52.122C126.661 52.122 127.348 52.809 127.348 53.794C127.348 54.618 126.822 55.054 125.471 55.305L123.226 55.718C119.265 56.45 117.753 58.076 117.753 60.664C117.753 63.618 119.837 65.474 122.723 65.474C125.081 65.474 126.616 64.374 127.326 61.626H127.623V65.176H132.273V54.298C132.273 50.519 130.005 48.229 125.265 48.229ZM124.715 62.107C123.387 62.107 122.631 61.397 122.631 60.343C122.631 59.473 123.158 58.878 124.463 58.58L125.379 58.374C126.169 58.191 126.782 57.947 127.349 57.457V59.221C127.349 61.259 126.272 62.107 124.715 62.107ZM160.257 48.229C155.974 48.229 153.387 50.336 152.929 54.114H157.646C157.807 52.809 158.654 52.122 160.142 52.122C161.654 52.122 162.341 52.809 162.341 53.794C162.341 54.618 161.814 55.054 160.463 55.305L158.219 55.718C154.257 56.45 152.745 58.076 152.745 60.664C152.745 63.618 154.829 65.474 157.715 65.474C160.074 65.474 161.608 64.374 162.318 61.626H162.616V65.176H167.265V54.298C167.265 50.519 164.997 48.229 160.257 48.229ZM159.707 62.107C158.379 62.107 157.623 61.397 157.623 60.343C157.623 59.473 158.15 58.878 159.455 58.58L160.371 58.374C161.161 58.191 161.775 57.947 162.341 57.457V59.221C162.341 61.259 161.265 62.107 159.707 62.107Z" fill="white" fill-opacity="0.35"/>
<path d="M56.77 45.989C55.758 45.989 55.036 46.43 54.37 47.388L52.45 50.145V42.275H47.87V50.145L45.95 47.388C45.285 46.43 44.563 45.989 43.55 45.989C42.022 45.989 41.005 47.117 41 48.507C40.996 49.697 41.557 50.473 42.74 51.235L50.16 56.015L57.58 51.235C58.763 50.473 59.324 49.697 59.32 48.507C59.316 47.117 58.298 45.989 56.77 45.989Z" fill="white" fill-opacity="0.35"/>
<path d="M50.1595 57.16C54.5695 57.16 58.1845 60.452 58.1745 65.176H42.1445C42.1355 60.454 45.7495 57.16 50.1595 57.16Z" fill="white" fill-opacity="0.35"/>
</g>
<defs>
<clipPath id="clip0_404_4">
<rect width="150" height="24" fill="white" transform="translate(41 42)"/>
</clipPath>
</defs>
</svg>
