<svg width="232" height="108" viewBox="0 0 232 108" fill="none" xmlns="http://www.w3.org/2000/svg">
<g opacity="0.35">
<path d="M174.419 26.5031C173.021 25.1056 171.235 24.4068 169.294 24.3292H63.6267C59.6671 24.4068 56.4062 27.5901 56.4062 31.6273V60.2764C56.4062 64.236 59.6671 67.4969 63.6267 67.4969H169.294C173.254 67.4969 176.515 64.3137 176.515 60.2764V31.6273C176.515 29.6863 175.816 27.9006 174.419 26.5031ZM172.245 63.1491C171.468 63.9255 170.381 64.3913 169.294 64.3913H63.6267C61.3752 64.3913 59.5118 62.528 59.5118 60.2764V31.6273C59.5118 29.3758 61.3752 27.5124 63.6267 27.5124H169.294C171.546 27.5124 173.409 29.3758 173.409 31.6273V60.1988C173.487 61.2857 173.021 62.3727 172.245 63.1491Z" fill="white"/>
<path d="M97.2452 46.6894H91.8105L89.9471 50.3385H95.3819L94.1397 52.9783H81.6396L88.7825 38.7702H101.283L99.9626 41.3323H94.4502L93.1303 44.0497H98.5651L97.2452 46.6894Z" fill="white"/>
<path d="M112.229 38.7702H118.44L111.375 52.9783H104.62V46.8447L101.593 52.9783H95.7695L102.912 38.7702H109.512V44.0497L112.229 38.7702Z" fill="white"/>
<path d="M86.1424 39.6242C85.8319 39.3137 85.5213 39.0031 85.0555 38.8478C84.5896 38.6926 84.2015 38.6926 83.658 38.6926H71.7015L64.5586 52.9006H71.2356L73.4095 48.6304H80.0089C80.7853 48.6304 81.4841 48.3975 82.1052 48.0093C82.571 47.6211 82.9592 47.1553 83.3474 46.6118L86.0648 41.177C86.1424 40.9441 86.2201 40.7888 86.2977 40.5559C86.2977 40.2453 86.2201 39.9348 86.1424 39.6242ZM78.8443 41.4876C78.8443 41.6429 78.7667 41.7205 78.689 41.7981L76.8257 45.5248C76.748 45.7578 76.5151 45.913 76.4375 46.0683C76.1269 46.3012 75.8164 46.3789 75.5834 46.3789H74.6518L77.2915 41.0217H77.9126C78.1455 41.0217 78.3785 41.0217 78.6114 41.0994C78.689 41.0994 78.7667 41.177 78.8443 41.3323V41.4876Z" fill="white"/>
<path d="M164.561 46.6894H159.126L157.263 50.3385H162.697L161.455 52.9783H148.955L156.098 38.7702H168.598L167.278 41.3323H161.766L160.446 44.0497H165.881L164.561 46.6894Z" fill="white"/>
<path d="M148.021 52.9783L146.624 44.5155L155.009 38.7702H148.332L142.586 43.1957L144.838 38.7702H137.617L130.475 52.9783H137.617L139.403 49.4845L140.568 48.6304L141.344 52.9783H148.021Z" fill="white"/>
<path d="M125.894 44.4379C124.574 43.9721 125.35 42.9627 125.35 42.9627L126.049 41.7205C126.282 41.4099 126.592 41.2547 126.903 41.2547C128.301 41.177 127.757 42.1087 127.757 42.1087L127.136 43.3509H134.201L134.978 41.9534C134.978 41.9534 137.307 38.382 126.67 38.382C125.195 38.382 123.642 38.6149 122.245 38.9255C121.624 39.0807 121.08 39.236 120.537 39.5466C119.993 39.8571 119.527 40.323 119.217 40.8665L117.819 43.1957C117.819 43.1957 116.499 45.059 119.45 46.0683L123.565 47.4658C124.884 47.9317 124.108 48.941 124.108 48.941L123.332 50.2609C123.099 50.5714 122.866 50.6491 122.478 50.6491C121.08 50.6491 121.624 49.7174 121.624 49.7174L122.555 47.854H115.49L114.558 50.0279C114.325 50.4161 114.248 50.882 114.403 51.4255C114.714 52.1242 115.335 52.5901 116.111 52.823C117.353 53.2888 119.527 53.677 122.788 53.677C122.788 53.677 124.03 53.677 125.35 53.5217C126.437 53.4441 127.524 53.2112 128.533 52.9006C129.155 52.5901 129.698 52.2019 130.009 51.6584L131.096 49.6398C131.561 49.0186 131.717 48.2422 131.561 47.3882C131.406 47.0776 131.251 46.7671 131.018 46.5342C130.63 46.2236 130.164 45.9907 129.62 45.8354L125.894 44.4379Z" fill="white"/>
<path d="M77.4478 72.6211L64.8701 85.354H67.3546L69.9167 82.7919H76.2055L75.7397 85.354H77.9912L80.0875 72.6211H77.4478ZM76.4384 81.0839H71.6248L77.603 74.8727L76.4384 81.0839Z" fill="white"/>
<path d="M92.1979 76.1926L86.9184 85.354H84.8221L85.1327 84.8882C84.2787 85.354 83.1917 85.587 82.1824 85.5093C80.7849 85.5093 80.0861 85.1988 79.6979 84.6553C79.3097 83.9565 79.6979 83.1025 80.0861 82.4037L83.6575 76.2702H85.7538L82.1047 82.4814C81.7942 83.0248 81.6389 83.413 81.7942 83.646C81.9495 83.8789 82.1047 83.9565 82.8811 83.9565C84.5116 84.1118 85.9867 83.2578 86.8408 81.8602L90.024 76.3478L92.1979 76.1926Z" fill="white"/>
<path d="M95.3032 81.8602H97.3218L97.0112 82.3261C95.3032 85.2764 93.9056 85.4317 92.2752 85.4317C90.9553 85.4317 90.3342 85.1988 90.1013 84.8106C89.7907 84.4224 90.1013 83.7236 90.4119 83.2578L93.5174 77.823H92.3528L93.2069 76.2702H94.3715L95.5361 74.2516H97.71L96.5454 76.2702H100.117L99.2628 77.823H95.6914L92.5081 83.3354C92.2752 83.646 92.2752 83.8012 92.2752 83.8012C92.2752 83.8012 92.3528 83.8789 92.8187 83.8789C93.6727 83.8789 94.2162 83.8012 95.2255 81.9379L95.3032 81.8602Z" fill="white"/>
<path d="M108.889 77.0466C108.578 76.4255 107.647 76.1926 105.783 76.1926C102.523 76.1926 101.203 76.8137 98.8735 80.7733C97.7089 82.7919 97.1654 83.9565 97.6312 84.8106C98.0971 85.587 99.1064 85.6646 100.737 85.6646C104.464 85.6646 105.55 84.7329 107.647 81.0839C108.811 78.9099 109.355 77.7453 108.889 77.0466ZM105.628 80.6957C103.765 83.8012 103.377 83.9565 101.358 83.9565C100.892 83.9565 99.9604 83.9565 99.8828 83.7236C99.6498 83.413 100.582 81.7826 101.047 81.0062C102.911 77.823 103.299 77.7453 105.318 77.7453C105.783 77.7453 106.715 77.7453 106.793 77.9783C106.948 78.2112 106.094 79.8416 105.628 80.6957Z" fill="white"/>
<path d="M125.273 79.0652L121.624 85.354H119.605L123.021 79.3758C123.487 78.5217 123.409 78.2112 123.332 78.0559C123.254 77.9006 122.788 77.7453 122.089 77.7453C120.614 77.5901 119.062 78.4441 118.363 79.764L115.18 85.2764H113.083L116.81 78.9099C117.121 78.2888 117.121 78.0559 117.121 77.9783C117.043 77.9006 116.81 77.6677 115.878 77.6677C114.015 77.6677 112.773 78.5217 111.763 80.2298L108.813 85.2764H106.717L112.152 76.0373H114.248L113.937 76.6584C114.791 76.1925 115.801 75.882 116.81 75.882C118.052 75.882 118.751 76.1149 119.139 76.5031C119.294 76.6584 119.372 76.8137 119.45 77.0466C120.614 76.2702 121.934 75.882 123.332 75.882C124.652 75.882 125.428 76.1925 125.816 76.736C126.049 77.5901 125.816 78.2112 125.273 79.0652Z" fill="white"/>
<path d="M136.065 77.0466C135.754 76.4255 134.823 76.1926 132.959 76.1926C129.698 76.1926 128.378 76.8137 126.049 80.7733C124.885 82.7919 124.341 83.9565 124.807 84.8106C125.273 85.6646 126.282 85.6646 127.913 85.6646C131.639 85.6646 132.726 84.7329 134.823 81.0839C135.987 78.9099 136.531 77.7453 136.065 77.0466ZM132.804 80.6957C130.941 83.8012 130.552 83.9565 128.534 83.9565C128.068 83.9565 127.136 83.9565 127.059 83.7236C126.826 83.413 127.757 81.7826 128.223 81.0062C130.087 77.9006 130.475 77.7453 132.493 77.7453C132.959 77.7453 133.891 77.7453 133.968 77.9783C134.201 78.2112 133.27 79.8416 132.804 80.6957Z" fill="white"/>
<path d="M142.199 82.3261C140.491 85.2764 139.093 85.4317 137.463 85.4317C136.143 85.4317 135.522 85.1988 135.289 84.8106C134.978 84.4224 135.289 83.7236 135.599 83.2578L138.705 77.823H137.54L138.472 76.2702H139.637L140.801 74.2516H142.897L141.733 76.2702H145.304L144.373 77.823H140.801L137.618 83.3354C137.385 83.646 137.385 83.8012 137.385 83.8012C137.385 83.8012 137.463 83.8789 137.929 83.8789C138.783 83.8789 139.326 83.8012 140.335 81.9379L140.413 81.7826H142.432L142.199 82.3261Z" fill="white"/>
<path d="M149.34 76.1926L144.061 85.354H141.887L147.244 76.1926H149.34Z" fill="white"/>
<path d="M150.585 74.7174H148.488L149.575 72.6211H151.749L150.585 74.7174Z" fill="white"/>
<path d="M159.667 76.1926L151.049 85.354H148.564L150.505 76.1926H152.602L151.127 82.9472L157.338 76.1926H159.667Z" fill="white"/>
<path d="M167.433 77.0466C167.122 76.4255 166.19 76.1926 164.482 76.1926C161.066 76.1926 159.669 77.0466 157.572 80.7733C156.33 82.8696 155.864 83.9565 156.252 84.7329C156.563 85.354 157.495 85.587 159.358 85.587C162.852 85.587 163.783 84.8106 164.793 83.0248L165.259 82.1708H163.162L163.085 82.3261C162.231 83.8789 161.765 83.8789 159.669 83.8789C158.737 83.8789 158.426 83.7236 158.349 83.5683C158.116 83.2578 158.737 82.2484 158.97 81.9379L159.28 81.3168H165.724L166.578 79.9193C167.51 78.5994 167.898 77.6677 167.433 77.0466ZM164.715 79.764H160.445C161.299 78.3665 161.842 77.7453 163.939 77.7453C165.103 77.7453 165.336 77.9783 165.414 78.0559C165.569 78.2112 165.181 78.9876 164.715 79.764Z" fill="white"/>
</g>
</svg>
