<svg width="100" height="100" viewBox="0 0 100 100" fill="none" xmlns="http://www.w3.org/2000/svg">
<g clip-path="url(#clip0_74_465)">
<g clip-path="url(#clip1_74_465)">
<path d="M70.8642 81.962C64.1893 86.2232 56.3367 88.2619 48.4319 87.7859C40.5271 87.31 32.9759 84.3437 26.8606 79.3124C20.7452 74.281 16.3796 67.4429 14.3894 59.7779C12.3992 52.1129 12.8867 44.0147 15.7819 36.6438C18.6771 29.2729 23.8315 23.0078 30.5062 18.7463C37.181 14.4848 45.0334 12.4458 52.9383 12.9214C60.8431 13.3971 68.3944 16.363 74.51 21.3941C80.6256 26.4252 84.9915 33.2632 86.982 40.928" stroke="#8E36E6" stroke-width="10" stroke-linecap="round" stroke-linejoin="round"/>
<path d="M71.7179 59.7424V41.2239C71.7171 40.412 71.5028 39.6146 71.0965 38.9117C70.6902 38.2089 70.1062 37.6252 69.4031 37.2192L53.1994 27.96C52.4956 27.5536 51.6973 27.3397 50.8846 27.3397C50.0719 27.3397 49.2736 27.5536 48.5698 27.96L32.3661 37.2192C31.663 37.6252 31.079 38.2089 30.6727 38.9117C30.2664 39.6146 30.0521 40.412 30.0513 41.2239V59.7424C30.0521 60.5542 30.2664 61.3516 30.6727 62.0545C31.079 62.7574 31.663 63.3411 32.3661 63.747L48.5698 73.0063C49.2736 73.4126 50.0719 73.6265 50.8846 73.6265C51.6973 73.6265 52.4956 73.4126 53.1994 73.0063L69.4031 63.747C70.1062 63.3411 70.6902 62.7574 71.0965 62.0545C71.5028 61.3516 71.7171 60.5542 71.7179 59.7424Z" stroke="#8E36E6" stroke-width="7" stroke-linecap="round" stroke-linejoin="round"/>
<path d="M50.8847 59.7424C55.9985 59.7424 60.144 55.5969 60.144 50.4831C60.144 45.3694 55.9985 41.2239 50.8847 41.2239C45.771 41.2239 41.6255 45.3694 41.6255 50.4831C41.6255 55.5969 45.771 59.7424 50.8847 59.7424Z" stroke="#8E36E6" stroke-width="7" stroke-linecap="round" stroke-linejoin="round"/>
</g>
</g>
<defs>
<clipPath id="clip0_74_465">
<rect width="100" height="100" fill="white"/>
</clipPath>
<clipPath id="clip1_74_465">
<rect width="100" height="100" fill="white" transform="translate(0.686035 0.355591)"/>
</clipPath>
</defs>
</svg>
