<svg width="1026" height="236" viewBox="0 0 1026 236" fill="none" xmlns="http://www.w3.org/2000/svg">
<g filter="url(#filter0_d_33_38)">
<path d="M124.198 61.3C138.655 71.5862 163.623 81.3675 174.3 84.9723C166.5 155.803 135.089 176.815 120.359 178.468C85.1604 165.782 75.0917 110.227 74.4572 84.0346C95.2424 79.6675 116.278 67.0586 124.198 61.3Z" fill="url(#paint0_linear_33_38)"/>
</g>
<path d="M123.747 20.4246C148.559 38.0781 191.41 54.8649 209.734 61.0517C196.348 182.613 142.439 218.675 117.159 221.511C56.7498 199.74 39.4697 104.394 38.3807 59.4424C74.0528 51.9474 110.155 30.3076 123.747 20.4246Z" fill="#872CE2" fill-opacity="0.52"/>
<path d="M310.14 171L345.24 81H366.12L329.04 171H310.14ZM308.7 171L271.44 81H292.14L327.42 171H308.7ZM372.779 171V81H392.759V171H372.779ZM382.859 63.9C379.619 63.9 376.799 62.76 374.399 60.48C372.119 58.08 370.979 55.26 370.979 52.02C370.979 48.78 372.119 46.02 374.399 43.74C376.799 41.46 379.619 40.32 382.859 40.32C386.099 40.32 388.859 41.46 391.139 43.74C393.539 46.02 394.739 48.78 394.739 52.02C394.739 55.26 393.539 58.08 391.139 60.48C388.859 62.76 386.099 63.9 382.859 63.9ZM409.319 171V81H428.219L429.479 97.56V171H409.319ZM470.339 171V124.92H490.499V171H470.339ZM470.339 124.92C470.339 117.72 469.499 112.2 467.819 108.36C466.259 104.4 463.979 101.64 460.979 100.08C458.099 98.52 454.679 97.74 450.719 97.74C443.999 97.62 438.779 99.84 435.059 104.4C431.339 108.96 429.479 115.5 429.479 124.02H421.919C421.919 114.54 423.299 106.44 426.059 99.72C428.819 92.88 432.779 87.72 437.939 84.24C443.099 80.64 449.219 78.84 456.299 78.84C463.499 78.84 469.619 80.28 474.659 83.16C479.819 86.04 483.719 90.54 486.359 96.66C489.119 102.66 490.499 110.52 490.499 120.24V124.92H470.339ZM545.84 173.16C536.6 173.16 528.44 171.18 521.36 167.22C514.28 163.14 508.7 157.56 504.62 150.48C500.66 143.4 498.68 135.24 498.68 126C498.68 116.76 500.66 108.6 504.62 101.52C508.7 94.44 514.22 88.92 521.18 84.96C528.26 80.88 536.36 78.84 545.48 78.84C554.36 78.84 562.4 81 569.6 85.32C576.8 89.52 582.14 95.58 585.62 103.5L566.9 110.7C564.98 106.74 562.04 103.56 558.08 101.16C554.12 98.76 549.62 97.56 544.58 97.56C539.66 97.56 535.28 98.82 531.44 101.34C527.6 103.74 524.6 107.1 522.44 111.42C520.28 115.62 519.2 120.48 519.2 126C519.2 131.52 520.28 136.44 522.44 140.76C524.72 144.96 527.78 148.32 531.62 150.84C535.58 153.24 540.02 154.44 544.94 154.44C549.98 154.44 554.48 153.18 558.44 150.66C562.4 148.02 565.34 144.48 567.26 140.04L585.98 147.24C582.5 155.4 577.16 161.76 569.96 166.32C562.88 170.88 554.84 173.16 545.84 173.16ZM595.69 171V81H615.67V171H595.69ZM605.77 63.9C602.53 63.9 599.71 62.76 597.31 60.48C595.03 58.08 593.89 55.26 593.89 52.02C593.89 48.78 595.03 46.02 597.31 43.74C599.71 41.46 602.53 40.32 605.77 40.32C609.01 40.32 611.77 41.46 614.05 43.74C616.45 46.02 617.65 48.78 617.65 52.02C617.65 55.26 616.45 58.08 614.05 60.48C611.77 62.76 609.01 63.9 605.77 63.9ZM668.448 171V45H688.608V171H668.448ZM745.187 173.16C736.187 173.16 728.147 171.18 721.067 167.22C714.107 163.14 708.647 157.56 704.687 150.48C700.727 143.4 698.747 135.24 698.747 126C698.747 116.76 700.667 108.6 704.507 101.52C708.467 94.44 713.927 88.92 720.887 84.96C727.847 80.88 735.827 78.84 744.827 78.84C753.827 78.84 761.807 80.88 768.767 84.96C775.727 88.92 781.127 94.44 784.967 101.52C788.927 108.6 790.907 116.76 790.907 126C790.907 135.24 788.987 143.4 785.147 150.48C781.307 157.56 775.907 163.14 768.947 167.22C761.987 171.18 754.067 173.16 745.187 173.16ZM745.187 154.62C750.107 154.62 754.487 153.42 758.327 151.02C762.167 148.5 765.167 145.14 767.327 140.94C769.487 136.62 770.567 131.64 770.567 126C770.567 120.36 769.427 115.44 767.147 111.24C764.987 106.92 761.987 103.56 758.147 101.16C754.307 98.64 749.867 97.38 744.827 97.38C739.787 97.38 735.347 98.58 731.507 100.98C727.667 103.38 724.667 106.74 722.507 111.06C720.347 115.38 719.267 120.36 719.267 126C719.267 131.64 720.347 136.62 722.507 140.94C724.787 145.14 727.847 148.5 731.687 151.02C735.647 153.42 740.147 154.62 745.187 154.62ZM839.877 209.34C833.517 209.34 827.757 208.8 822.597 207.72C817.557 206.64 813.297 205.38 809.817 203.94C806.337 202.5 803.637 201.12 801.717 199.8L809.457 183.6C811.137 184.44 813.357 185.46 816.117 186.66C818.997 187.98 822.357 189.12 826.197 190.08C830.037 191.04 834.357 191.52 839.157 191.52C844.317 191.52 848.937 190.44 853.017 188.28C857.097 186.24 860.277 183.06 862.557 178.74C864.837 174.42 865.977 168.9 865.977 162.18V81H886.137V161.64C886.137 171.84 884.217 180.48 880.377 187.56C876.537 194.76 871.137 200.16 864.177 203.76C857.217 207.48 849.117 209.34 839.877 209.34ZM836.817 169.2C828.657 169.2 821.517 167.34 815.397 163.62C809.397 159.9 804.657 154.74 801.177 148.14C797.817 141.42 796.137 133.68 796.137 124.92C796.137 115.56 797.817 107.46 801.177 100.62C804.657 93.78 809.397 88.44 815.397 84.6C821.517 80.76 828.657 78.84 836.817 78.84C844.137 78.84 850.497 80.76 855.897 84.6C861.417 88.44 865.677 93.84 868.677 100.8C871.677 107.64 873.177 115.74 873.177 125.1C873.177 133.98 871.677 141.72 868.677 148.32C865.677 154.92 861.417 160.08 855.897 163.8C850.497 167.4 844.137 169.2 836.817 169.2ZM842.397 152.1C846.957 152.1 850.917 150.9 854.277 148.5C857.757 146.1 860.457 142.86 862.377 138.78C864.297 134.58 865.257 129.78 865.257 124.38C865.257 118.86 864.297 114.06 862.377 109.98C860.457 105.78 857.757 102.54 854.277 100.26C850.797 97.86 846.777 96.66 842.217 96.66C837.417 96.66 833.157 97.86 829.437 100.26C825.837 102.54 822.957 105.78 820.797 109.98C818.757 114.06 817.737 118.86 817.737 124.38C817.737 129.78 818.757 134.58 820.797 138.78C822.957 142.86 825.897 146.1 829.617 148.5C833.337 150.9 837.597 152.1 842.397 152.1ZM902.464 171V81H922.444V171H902.464ZM912.544 63.9C909.304 63.9 906.484 62.76 904.084 60.48C901.804 58.08 900.664 55.26 900.664 52.02C900.664 48.78 901.804 46.02 904.084 43.74C906.484 41.46 909.304 40.32 912.544 40.32C915.784 40.32 918.544 41.46 920.824 43.74C923.224 46.02 924.424 48.78 924.424 52.02C924.424 55.26 923.224 58.08 920.824 60.48C918.544 62.76 915.784 63.9 912.544 63.9ZM981.124 173.16C971.884 173.16 963.724 171.18 956.644 167.22C949.564 163.14 943.984 157.56 939.904 150.48C935.944 143.4 933.964 135.24 933.964 126C933.964 116.76 935.944 108.6 939.904 101.52C943.984 94.44 949.504 88.92 956.464 84.96C963.544 80.88 971.644 78.84 980.764 78.84C989.644 78.84 997.684 81 1004.88 85.32C1012.08 89.52 1017.42 95.58 1020.9 103.5L1002.18 110.7C1000.26 106.74 997.324 103.56 993.364 101.16C989.404 98.76 984.904 97.56 979.864 97.56C974.944 97.56 970.564 98.82 966.724 101.34C962.884 103.74 959.884 107.1 957.724 111.42C955.564 115.62 954.484 120.48 954.484 126C954.484 131.52 955.564 136.44 957.724 140.76C960.004 144.96 963.064 148.32 966.904 150.84C970.864 153.24 975.304 154.44 980.224 154.44C985.264 154.44 989.764 153.18 993.724 150.66C997.684 148.02 1000.62 144.48 1002.54 140.04L1021.26 147.24C1017.78 155.4 1012.44 161.76 1005.24 166.32C998.164 170.88 990.124 173.16 981.124 173.16Z" fill="white"/>
<defs>
<filter id="filter0_d_33_38" x="64.9573" y="53.7998" width="118.843" height="136.168" filterUnits="userSpaceOnUse" color-interpolation-filters="sRGB">
<feFlood flood-opacity="0" result="BackgroundImageFix"/>
<feColorMatrix in="SourceAlpha" type="matrix" values="0 0 0 0 0 0 0 0 0 0 0 0 0 0 0 0 0 0 127 0" result="hardAlpha"/>
<feOffset dy="2"/>
<feGaussianBlur stdDeviation="4.75"/>
<feComposite in2="hardAlpha" operator="out"/>
<feColorMatrix type="matrix" values="0 0 0 0 0.683333 0 0 0 0 0 0 0 0 0 1 0 0 0 0.15 0"/>
<feBlend mode="normal" in2="BackgroundImageFix" result="effect1_dropShadow_33_38"/>
<feBlend mode="normal" in="SourceGraphic" in2="effect1_dropShadow_33_38" result="shape"/>
</filter>
<linearGradient id="paint0_linear_33_38" x1="132.623" y1="63.8555" x2="99.7531" y2="172.217" gradientUnits="userSpaceOnUse">
<stop stop-color="#872CE2"/>
<stop offset="1" stop-color="#B973FF"/>
</linearGradient>
</defs>
</svg>
