<svg width="111" height="127" viewBox="0 0 111 127" fill="none" xmlns="http://www.w3.org/2000/svg">
<g filter="url(#filter0_d_114_810)">
<path d="M55.0695 25.8127C64.3536 32.2743 80.3878 38.4187 87.2445 40.6831C82.2354 85.1772 62.0636 98.3765 52.6041 99.4148C29.9999 91.4458 23.5339 56.5475 23.1265 40.0941C36.4745 37.3508 49.9833 29.4302 55.0695 25.8127Z" fill="url(#paint0_linear_114_810)"/>
</g>
<path d="M54.8214 0C70.7554 11.0895 98.2738 21.6346 110.041 25.521C101.445 101.883 66.8252 124.536 50.5906 126.318C11.7964 112.642 0.699345 52.7475 0 24.51C22.9083 19.8019 46.0927 6.20826 54.8214 0Z" fill="#872CE2" fill-opacity="0.52"/>
<defs>
<filter id="filter0_d_114_810" x="13.6265" y="18.3127" width="83.1182" height="92.6021" filterUnits="userSpaceOnUse" color-interpolation-filters="sRGB">
<feFlood flood-opacity="0" result="BackgroundImageFix"/>
<feColorMatrix in="SourceAlpha" type="matrix" values="0 0 0 0 0 0 0 0 0 0 0 0 0 0 0 0 0 0 127 0" result="hardAlpha"/>
<feOffset dy="2"/>
<feGaussianBlur stdDeviation="4.75"/>
<feComposite in2="hardAlpha" operator="out"/>
<feColorMatrix type="matrix" values="0 0 0 0 0.683333 0 0 0 0 0 0 0 0 0 1 0 0 0 0.15 0"/>
<feBlend mode="normal" in2="BackgroundImageFix" result="effect1_dropShadow_114_810"/>
<feBlend mode="normal" in="SourceGraphic" in2="effect1_dropShadow_114_810" result="shape"/>
</filter>
<linearGradient id="paint0_linear_114_810" x1="60.4799" y1="27.418" x2="40.2087" y2="95.7366" gradientUnits="userSpaceOnUse">
<stop stop-color="#872CE2"/>
<stop offset="1" stop-color="#B973FF"/>
</linearGradient>
</defs>
</svg>
